# xmcd
#
# Track frame offsets:
#	150
#	12601
#	28197
#	43872
#	58647
#	67533
#	86209
#	99934
#	117973
#	127424
#	142135
#	152624
#
# Disc length: 2264 seconds
#
# Revision: 0
# Processed by: cddbd v1.5.2PL0 Copyright (c) Steve Scherf et al.
# Submitted via: dBpowerAMP V4.0
#
DISCID=a908d60c
DTITLE=Lo-Fi Breakdown - Lo-Fi Breakdown EP
DYEAR=2006
DGENRE=Bluegrass
TTITLE0=Highwater
TTITLE1=No One Can Take the Place of You
TTITLE2=Man Killer
TTITLE3=Stranded
TTITLE4=Shenandoah Breakdown
TTITLE5=Vamp in the Middle
TTITLE6=Trust Each Other
TTITLE7=Black Ribbon Road
TTITLE8=Texas Line Dance
TTITLE9=Hard Up Man Blues (live)
TTITLE10=Home is Where the Heart Is (live)
TTITLE11=Orange Blossom Special (live)
EXTD=
EXTT0=
EXTT1=
EXTT2=
EXTT3=
EXTT4=
EXTT5=
EXTT6=
EXTT7=
EXTT8=
EXTT9=
EXTT10=
EXTT11=
PLAYORDER=
